<svg xmlns="http://www.w3.org/2000/svg" xmlns:xlink="http://www.w3.org/1999/xlink" width="500" height="142" viewBox="0 0 500 142">
  <defs>
    <filter id="Path_16" x="-86.34" y="-83.894" width="672.681" height="315.693" filterUnits="userSpaceOnUse">
      <feOffset dy="3" input="SourceAlpha"/>
      <feGaussianBlur stdDeviation="30" result="blur"/>
      <feFlood flood-opacity="0.161"/>
      <feComposite operator="in" in2="blur"/>
      <feComposite in="SourceGraphic"/>
    </filter>
    <clipPath id="clip-App_Store">
      <rect width="500" height="142"/>
    </clipPath>
  </defs>
  <g id="App_Store" data-name="App Store" clip-path="url(#clip-App_Store)">
    <rect width="500" height="142" fill="rgba(255,255,255,0)"/>
    <g id="property-1-english" transform="translate(0 0)">
      <path id="Path_15" data-name="Path 15" d="M460.183,0H39.84c-1.533,0-3.046,0-4.577.008-1.277.008-2.546.027-3.838.044a64.906,64.906,0,0,0-8.373.627A31.416,31.416,0,0,0,15.11,2.9,27.212,27.212,0,0,0,8.346,7.085a22.765,22.765,0,0,0-4.923,5.748A21.116,21.116,0,0,0,.812,19.585a39.493,39.493,0,0,0-.75,7.1C.023,27.776.021,28.868,0,29.956V111.95c.019,1.1.025,2.168.063,3.27a39.09,39.09,0,0,0,.75,7.1,20.948,20.948,0,0,0,2.61,6.755A22.642,22.642,0,0,0,8.346,134.8a26.472,26.472,0,0,0,6.763,4.18,31.6,31.6,0,0,0,7.942,2.238,65.606,65.606,0,0,0,8.373.627c1.292.025,2.562.039,3.84.039,1.527.008,3.042.008,4.573.008H460.183c1.5,0,3.029,0,4.529-.008,1.275,0,2.581-.014,3.854-.039a64.987,64.987,0,0,0,8.356-.627,32.014,32.014,0,0,0,7.973-2.238,26.492,26.492,0,0,0,6.758-4.18,23.336,23.336,0,0,0,4.937-5.727,21.017,21.017,0,0,0,2.587-6.755,40.9,40.9,0,0,0,.777-7.1c.015-1.1.015-2.168.015-3.27.033-1.291.033-2.571.033-3.881V33.829c0-1.3,0-2.589-.033-3.873,0-1.088,0-2.18-.015-3.268a40.909,40.909,0,0,0-.777-7.1,21.039,21.039,0,0,0-2.587-6.752A25.367,25.367,0,0,0,484.894,2.9,31.91,31.91,0,0,0,476.921.679a63.937,63.937,0,0,0-8.356-.627c-1.273-.017-2.579-.039-3.854-.044C463.212,0,461.685,0,460.183,0Z" transform="translate(0)" fill="#a6a6a6"/>
      <g transform="matrix(1, 0, 0, 1, 0, 0)" filter="url(#Path_16)">
        <path id="Path_16-2" data-name="Path 16" d="M33.534,137.295c-1.273,0-2.515-.015-3.779-.039a62.1,62.1,0,0,1-7.809-.579,27.71,27.71,0,0,1-6.923-1.944,22.747,22.747,0,0,1-5.836-3.605,19.374,19.374,0,0,1-4.265-4.954,18.291,18.291,0,0,1-2.269-5.88,37.6,37.6,0,0,1-.694-6.651C1.932,112.9,1.9,110.4,1.9,110.4V28.462s.038-2.454.062-3.173a37.316,37.316,0,0,1,.692-6.642,18.328,18.328,0,0,1,2.269-5.9A19.585,19.585,0,0,1,9.162,7.792a23.446,23.446,0,0,1,5.859-3.627,27.407,27.407,0,0,1,6.907-1.929,61.46,61.46,0,0,1,7.836-.583l3.769-.044H462.92l3.815.046a60.323,60.323,0,0,1,7.765.577,27.918,27.918,0,0,1,6.981,1.943,21.936,21.936,0,0,1,10.09,8.584,18.368,18.368,0,0,1,2.236,5.849,39.29,39.29,0,0,1,.727,6.694c.012,1.007.012,2.085.012,3.16.033,1.331.033,2.6.033,3.873v74.24c0,1.289,0,2.546-.033,3.814,0,1.154,0,2.211-.015,3.3a38.647,38.647,0,0,1-.715,6.574,18.21,18.21,0,0,1-2.256,5.924,19.943,19.943,0,0,1-4.244,4.917,22.888,22.888,0,0,1-5.846,3.627,27.558,27.558,0,0,1-6.969,1.95,61.4,61.4,0,0,1-7.811.579c-1.223.023-2.5.039-3.748.039l-4.531.006L33.534,137.3Z" transform="translate(1.76 1.5)"/>
      </g>
      <path id="Path_17" data-name="Path 17" d="M82.093,59.938A17.666,17.666,0,0,1,84.362,51.5,17.478,17.478,0,0,1,90.39,45.21a17.807,17.807,0,0,0-14.051-7.656c-5.912-.625-11.644,3.565-14.655,3.565-3.071,0-7.71-3.5-12.7-3.4A18.7,18.7,0,0,0,33.233,47.4c-6.809,11.877-1.73,29.335,4.792,38.935,3.264,4.7,7.078,9.954,12.068,9.767,4.882-.2,6.705-3.137,12.6-3.137,5.839,0,7.55,3.137,12.643,3.019,5.239-.087,8.54-4.722,11.69-9.47a38.983,38.983,0,0,0,5.343-10.97A16.868,16.868,0,0,1,84.9,69.3,17.074,17.074,0,0,1,82.093,59.938Zm-9.616-28.7A17.385,17.385,0,0,0,76.4,18.858a17.42,17.42,0,0,0-11.292,5.887,16.522,16.522,0,0,0-4.026,11.923A14.4,14.4,0,0,0,72.477,31.24ZM157.321,84.2H140.658l-4,11.906H129.6l15.785-44.049h7.332L168.5,96.1H161.32l-4-11.906ZM142.383,78.7h13.21l-6.514-19.323H148.9L142.381,78.7Zm60.2,1.343c0,9.983-5.3,16.395-13.3,16.395a10.789,10.789,0,0,1-10.029-5.621H179.1v15.909h-6.541V63.987H178.9v5.343h.12a11.291,11.291,0,0,1,10.148-5.679c8.09,0,13.422,6.443,13.422,16.4Zm-6.725,0c0-6.5-3.335-10.775-8.422-10.775-5,0-8.362,4.365-8.362,10.777,0,6.47,3.362,10.8,8.362,10.8,5.087,0,8.422-4.244,8.422-10.8Zm41.806,0c0,9.983-5.3,16.395-13.3,16.395a10.789,10.789,0,0,1-10.027-5.621h-.152v15.909h-6.541V63.987h6.331v5.343h.122a11.291,11.291,0,0,1,10.149-5.679c8.09,0,13.422,6.443,13.422,16.4Zm-6.725,0c0-6.5-3.335-10.775-8.424-10.775-5,0-8.36,4.365-8.36,10.777,0,6.47,3.362,10.8,8.36,10.8,5.089,0,8.424-4.244,8.424-10.8Zm29.909,3.785c.486,4.367,4.7,7.236,10.451,7.236,5.515,0,9.483-2.868,9.483-6.808,0-3.418-2.394-5.465-8.059-6.867l-5.665-1.377c-8.029-1.954-11.753-5.737-11.753-11.875,0-7.6,6.572-12.82,15.907-12.82,9.238,0,15.571,5.22,15.783,12.82h-6.6c-.4-4.4-4-7.049-9.271-7.049s-8.877,2.683-8.877,6.591c0,3.115,2.3,4.948,7.938,6.35L275,71.225c8.97,2.137,12.7,5.768,12.7,12.211,0,8.241-6.516,13.4-16.877,13.4-9.7,0-16.24-5.041-16.665-13.007h6.7Zm40.963-27.444v7.6h6.061v5.22h-6.061V86.914c0,2.751,1.213,4.032,3.879,4.032a20.039,20.039,0,0,0,2.151-.152v5.189a17.8,17.8,0,0,1-3.634.3c-6.453,0-8.968-2.442-8.968-8.671V69.209h-4.635V63.987h4.635v-7.6h6.572Zm9.572,23.659c0-10.1,5.907-16.454,15.116-16.454,9.242,0,15.122,6.35,15.122,16.454,0,10.135-5.849,16.456-15.122,16.456s-15.116-6.321-15.116-16.454Zm23.571,0c0-6.931-3.154-11.022-8.455-11.022s-8.449,4.124-8.449,11.024c0,6.96,3.148,11.019,8.449,11.019s8.455-4.059,8.455-11.019Zm12.06-16.059h6.24v5.467h.15a7.664,7.664,0,0,1,2.811-4.273,7.56,7.56,0,0,1,4.855-1.53,9.952,9.952,0,0,1,2.242.245v6.167a9.026,9.026,0,0,0-2.938-.4,6.6,6.6,0,0,0-6.53,4.56,6.689,6.689,0,0,0-.289,2.828V96.1h-6.541V63.987ZM393.48,86.671C392.6,92.5,386.964,96.5,379.755,96.5c-9.273,0-15.027-6.26-15.027-16.3,0-10.073,5.785-16.609,14.751-16.609,8.82,0,14.365,6.105,14.365,15.843v2.257H371.333v.4a8.4,8.4,0,0,0,2.249,6.5,8.248,8.248,0,0,0,6.323,2.6,7.166,7.166,0,0,0,4.425-1.028,7.252,7.252,0,0,0,2.936-3.49h6.213Zm-22.116-9.585H387.3a7.744,7.744,0,0,0-2.141-5.8,7.633,7.633,0,0,0-5.677-2.353,8.029,8.029,0,0,0-5.743,2.371,8.147,8.147,0,0,0-2.373,5.779ZM143.683,16.036a9.294,9.294,0,0,1,9.884,10.436c0,6.713-3.627,10.569-9.884,10.569H136.1V16.034h7.587ZM139.358,34.07h3.96a6.6,6.6,0,0,0,6.929-7.554A6.625,6.625,0,0,0,143.32,19h-3.964V34.07Zm17.9-4.963a7.51,7.51,0,1,1,14.952,0,7.511,7.511,0,1,1-14.952,0Zm11.734,0c0-3.434-1.543-5.446-4.253-5.446s-4.25,2.01-4.25,5.448c0,3.463,1.53,5.457,4.25,5.457S168.988,32.558,168.988,29.107Zm23.092,7.934h-3.247l-3.275-11.676h-.247l-3.264,11.676h-3.214l-4.369-15.853h3.173l2.84,12.095h.233l3.26-12.095h3l3.26,12.095h.247L193.3,21.188h3.129Zm8.027-15.853h3.011v2.519h.235a4.741,4.741,0,0,1,4.73-2.826,5.155,5.155,0,0,1,5.486,5.9V37.041H210.44V27.564c0-2.546-1.105-3.814-3.42-3.814a3.636,3.636,0,0,0-2.816,1.138,3.662,3.662,0,0,0-.8,1.333,3.622,3.622,0,0,0-.17,1.545v9.275h-3.129ZM218.556,15h3.127V37.041h-3.127Zm7.477,14.107a7.511,7.511,0,1,1,14.954,0,7.512,7.512,0,1,1-14.954,0Zm11.734,0c0-3.436-1.543-5.446-4.253-5.446s-4.25,2.01-4.25,5.446c0,3.464,1.53,5.459,4.25,5.459S237.767,32.558,237.767,29.107Zm6.512,3.451c0-2.855,2.124-4.5,5.9-4.734l4.294-.247v-1.37c0-1.672-1.107-2.618-3.247-2.618-1.746,0-2.957.64-3.3,1.761H244.89c.32-2.722,2.882-4.47,6.478-4.47,3.974,0,6.215,1.979,6.215,5.328V37.041h-3.011v-2.23h-.247a5.329,5.329,0,0,1-4.763,2.488,4.788,4.788,0,0,1-3.694-1.2,4.779,4.779,0,0,1-1.59-3.544ZM254.47,31.2V29.877l-3.872.249c-2.184.145-3.173.887-3.173,2.286,0,1.427,1.236,2.257,2.94,2.257a3.739,3.739,0,0,0,3.71-2.029,3.77,3.77,0,0,0,.4-1.435Zm7.226-2.095c0-5.008,2.575-8.181,6.58-8.181a5.218,5.218,0,0,1,4.861,2.78h.233V15H276.5V37.041h-3v-2.5h-.247a5.508,5.508,0,0,1-4.979,2.764c-4.034,0-6.58-3.173-6.58-8.194Zm3.231,0c0,3.362,1.586,5.386,4.236,5.386s4.267-2.052,4.267-5.372c0-3.3-1.647-5.384-4.267-5.384S264.927,25.774,264.927,29.107Zm24.516,0a7.51,7.51,0,0,1,13.034-5.766,7.51,7.51,0,0,1,1.917,5.768,7.511,7.511,0,1,1-14.952,0Zm11.734,0c0-3.434-1.543-5.446-4.254-5.446s-4.25,2.01-4.25,5.448c0,3.463,1.532,5.457,4.25,5.457S301.177,32.558,301.177,29.107Zm7.415-7.919H311.6v2.519h.235a4.742,4.742,0,0,1,4.73-2.826,5.155,5.155,0,0,1,5.486,5.9V37.041h-3.129V27.564c0-2.546-1.105-3.814-3.42-3.814a3.636,3.636,0,0,0-2.816,1.138,3.663,3.663,0,0,0-.8,1.333,3.622,3.622,0,0,0-.17,1.545v9.275h-3.129Zm31.14-3.947V21.26h3.436v2.635h-3.436v8.152c0,1.659.685,2.388,2.242,2.388a9.871,9.871,0,0,0,1.194-.073v2.606a10.284,10.284,0,0,1-1.7.16c-3.48,0-4.865-1.223-4.865-4.28V23.9h-2.517V21.26H336.6V17.242ZM347.441,15h3.1v8.737h.247a4.876,4.876,0,0,1,4.834-2.84,5.221,5.221,0,0,1,5.459,5.909V37.041H357.95V27.577c0-2.531-1.179-3.814-3.389-3.814a3.7,3.7,0,0,0-3.991,4.018v9.259h-3.129V15Zm31.883,17.76a6.433,6.433,0,0,1-6.869,4.585,7.2,7.2,0,0,1-7.323-8.181,7.314,7.314,0,0,1,7.309-8.283c4.412,0,7.072,3.013,7.072,7.992v1.092H368.318v.174a4.192,4.192,0,0,0,2.523,4.2,4.149,4.149,0,0,0,1.7.34,3.795,3.795,0,0,0,3.771-1.921h3.011Zm-11.005-5.11h8.007a3.822,3.822,0,0,0-3.9-4.1,4.057,4.057,0,0,0-4.1,4.1Z" transform="translate(27.87 13.935)" fill="#fff"/>
    </g>
  </g>
</svg>
