<svg xmlns="http://www.w3.org/2000/svg" xmlns:xlink="http://www.w3.org/1999/xlink" width="500" height="142" viewBox="0 0 500 142">
  <defs>
    <filter id="Path_4" x="-90" y="-85.82" width="680" height="320.818" filterUnits="userSpaceOnUse">
      <feOffset dy="3" input="SourceAlpha"/>
      <feGaussianBlur stdDeviation="30" result="blur"/>
      <feFlood flood-opacity="0.161"/>
      <feComposite operator="in" in2="blur"/>
      <feComposite in="SourceGraphic"/>
    </filter>
    <clipPath id="clip-Google_Play_Icon">
      <rect width="500" height="142"/>
    </clipPath>
  </defs>
  <g id="Google_Play_Icon" data-name="Google Play Icon" clip-path="url(#clip-Google_Play_Icon)">
    <rect width="500" height="142" fill="rgba(255,255,255,0)"/>
    <g id="language-english" transform="translate(0 1.18)">
      <g transform="matrix(1, 0, 0, 1, 0, -1.18)" filter="url(#Path_4)">
        <path id="Path_4-2" data-name="Path 4" d="M481.481,0H18.519C8.288,0,0,7.88,0,17.6V123.216c0,9.722,8.29,17.6,18.519,17.6H481.481c10.229,0,18.519-7.882,18.519-17.6V17.6C500,7.88,491.71,0,481.481,0Z" transform="translate(0 1.18)"/>
      </g>
      <path id="Path_5" data-name="Path 5" d="M481.481,2.816a15.979,15.979,0,0,1,10.994,4.336A14.433,14.433,0,0,1,497.037,17.6V123.216a14.441,14.441,0,0,1-4.562,10.451A15.986,15.986,0,0,1,481.481,138H18.519a15.986,15.986,0,0,1-10.994-4.335,14.438,14.438,0,0,1-4.562-10.451V17.6A14.439,14.439,0,0,1,7.523,7.153a15.991,15.991,0,0,1,11-4.336H481.481Zm0-2.816H18.519A19.067,19.067,0,0,0,5.44,5.17,17.224,17.224,0,0,0,0,17.6V123.218A17.219,17.219,0,0,0,5.44,135.65a19.066,19.066,0,0,0,13.077,5.17H481.481a19.067,19.067,0,0,0,13.079-5.17A17.22,17.22,0,0,0,500,123.218V17.6a17.212,17.212,0,0,0-5.44-12.431A19.06,19.06,0,0,0,481.481,0Z" fill="#a6a6a6"/>
      <path id="Path_6" data-name="Path 6" d="M102.18,24.421a9.1,9.1,0,0,1-.619,3.8,9.467,9.467,0,0,1-2.151,3.254,10.866,10.866,0,0,1-3.742,2.392,11.313,11.313,0,0,1-4.446.733,12.042,12.042,0,0,1-4.462-.814,11.531,11.531,0,0,1-3.779-2.392,10.825,10.825,0,0,1-2.5-3.594,10.357,10.357,0,0,1-.837-4.232,10.369,10.369,0,0,1,.837-4.232,10.844,10.844,0,0,1,2.5-3.594,11.539,11.539,0,0,1,3.781-2.392,12.426,12.426,0,0,1,9.035.069,9.2,9.2,0,0,1,3.488,2.359l-1.96,1.86a7.508,7.508,0,0,0-2.743-1.927,7.891,7.891,0,0,0-3.36-.579,9.038,9.038,0,0,0-3.376.635A8.611,8.611,0,0,0,85,17.6a8.1,8.1,0,0,0-1.86,2.745,7.815,7.815,0,0,0-.575,3.218,7.985,7.985,0,0,0,1.4,4.641,8.643,8.643,0,0,0,3.891,3.117,9.2,9.2,0,0,0,5.062.54,8.939,8.939,0,0,0,4.525-2.218,6.478,6.478,0,0,0,1.869-4.28h-8.1V22.827h10.8a8.335,8.335,0,0,1,.154,1.593ZM119.3,15.6H109.152v6.7h9.155v2.539h-9.155v6.7H119.3v2.6H106.291V13H119.3v2.6Zm12.078,18.528h-2.867V15.6H122.29V13h15.318v2.6h-6.227V34.126Zm17.311,0V13h2.863V34.126Zm15.567,0h-2.867V15.6h-6.227V13h15.318v2.6H164.26V34.126Zm35.222-2.73a12.029,12.029,0,0,1-16.345,0,10.8,10.8,0,0,1-2.481-3.6,10.317,10.317,0,0,1-.8-4.232,10.317,10.317,0,0,1,.8-4.232,10.8,10.8,0,0,1,2.481-3.6,11.618,11.618,0,0,1,3.748-2.373,12.14,12.14,0,0,1,8.841.008,11.587,11.587,0,0,1,3.742,2.378,10.782,10.782,0,0,1,2.486,3.592,10.347,10.347,0,0,1,.812,4.225,10.338,10.338,0,0,1-.8,4.232A10.777,10.777,0,0,1,199.482,31.4Zm-14.228-1.769a8.913,8.913,0,0,0,12.11,0,8.257,8.257,0,0,0,1.894-2.791,7.875,7.875,0,0,0,.584-3.272,7.876,7.876,0,0,0-.584-3.272,8.239,8.239,0,0,0-1.894-2.791,8.913,8.913,0,0,0-12.11,0,8.252,8.252,0,0,0-1.892,2.791,7.9,7.9,0,0,0-.583,3.272,7.9,7.9,0,0,0,.583,3.272,8.252,8.252,0,0,0,1.892,2.791Zm21.532,4.5V13h3.488l10.833,16.431h.123l-.123-4.07V13h2.867V34.126h-2.99L209.647,16.9h-.123l.123,4.07V34.126h-2.863Z" transform="translate(73.323 11.64)" fill="#fff"/>
      <path id="Path_7" data-name="Path 7" d="M179.7,47.673a16.437,16.437,0,0,0-8.764,2.55,15.173,15.173,0,0,0-5.793,6.732,14.239,14.239,0,0,0-.874,8.646,14.745,14.745,0,0,0,4.338,7.652,16.076,16.076,0,0,0,8.09,4.082,16.609,16.609,0,0,0,9.122-.862,15.642,15.642,0,0,0,7.081-5.515,14.43,14.43,0,0,0,2.658-8.314,14.073,14.073,0,0,0-1.146-5.775,14.742,14.742,0,0,0-3.436-4.9,15.713,15.713,0,0,0-5.177-3.237,16.344,16.344,0,0,0-6.1-1.063Zm0,24.047a10.039,10.039,0,0,1-5.509-1.21,9.306,9.306,0,0,1-3.835-3.939,8.679,8.679,0,0,1-.829-5.3,8.908,8.908,0,0,1,2.463-4.824,9.738,9.738,0,0,1,4.9-2.672,10.1,10.1,0,0,1,5.638.405,9.532,9.532,0,0,1,4.419,3.345,8.764,8.764,0,0,1,1.667,5.122,8.243,8.243,0,0,1-.548,3.393,8.582,8.582,0,0,1-1.894,2.924,9.168,9.168,0,0,1-2.944,2,9.546,9.546,0,0,1-3.532.758ZM145.1,47.673a16.437,16.437,0,0,0-8.763,2.55,15.162,15.162,0,0,0-5.793,6.732,14.239,14.239,0,0,0-.874,8.646,14.755,14.755,0,0,0,4.336,7.652,16.106,16.106,0,0,0,8.092,4.082,16.609,16.609,0,0,0,9.122-.862,15.652,15.652,0,0,0,7.081-5.515,14.43,14.43,0,0,0,2.658-8.314,14.073,14.073,0,0,0-1.146-5.775,14.742,14.742,0,0,0-3.436-4.9,15.713,15.713,0,0,0-5.177-3.237,16.382,16.382,0,0,0-6.1-1.063Zm0,24.047a10.039,10.039,0,0,1-5.509-1.21,9.306,9.306,0,0,1-3.835-3.939,8.679,8.679,0,0,1-.829-5.3,8.9,8.9,0,0,1,2.465-4.824,9.724,9.724,0,0,1,4.9-2.672,10.1,10.1,0,0,1,5.638.405,9.522,9.522,0,0,1,4.419,3.345,8.764,8.764,0,0,1,1.667,5.122,8.243,8.243,0,0,1-.548,3.393,8.581,8.581,0,0,1-1.894,2.924,9.147,9.147,0,0,1-2.944,2A9.546,9.546,0,0,1,145.1,71.72ZM103.943,52.27v6.35h16.04a12.933,12.933,0,0,1-3.65,8,16.523,16.523,0,0,1-5.675,3.569,17.166,17.166,0,0,1-6.715,1.08,18.325,18.325,0,0,1-12.458-5.029,16.281,16.281,0,0,1,0-23.742,18.326,18.326,0,0,1,12.458-5.029A17.606,17.606,0,0,1,116.034,42l4.728-4.481a23.522,23.522,0,0,0-7.728-4.811,24.551,24.551,0,0,0-9.091-1.6,25.686,25.686,0,0,0-9.5,1.671A24.694,24.694,0,0,0,86.36,37.8a23.2,23.2,0,0,0-5.415,7.585,22.139,22.139,0,0,0,0,17.955,23.249,23.249,0,0,0,5.413,7.587,24.7,24.7,0,0,0,8.083,5.017,25.737,25.737,0,0,0,9.5,1.672,23.531,23.531,0,0,0,9.3-1.516,22.565,22.565,0,0,0,7.82-5.006,20.367,20.367,0,0,0,5.806-14.859,19.621,19.621,0,0,0-.361-3.972H103.943ZM272.268,57.2a13.97,13.97,0,0,0-5.177-6.786,15.209,15.209,0,0,0-8.349-2.741,15.723,15.723,0,0,0-5.9,1.181,15.034,15.034,0,0,0-4.932,3.285A14.137,14.137,0,0,0,244.739,57a13.54,13.54,0,0,0-.9,5.648,13.98,13.98,0,0,0,1.1,5.754,14.579,14.579,0,0,0,3.385,4.888,15.517,15.517,0,0,0,5.133,3.247,16.22,16.22,0,0,0,6.063,1.084,16.425,16.425,0,0,0,7.467-1.744,15.436,15.436,0,0,0,5.7-4.892l-5.386-3.4a8.818,8.818,0,0,1-3.312,3.044,9.412,9.412,0,0,1-4.47,1.1,8.388,8.388,0,0,1-4.566-1.152,7.752,7.752,0,0,1-3.094-3.385l21.128-8.279Zm-21.547,4.992a7.848,7.848,0,0,1,.459-3.216,8.126,8.126,0,0,1,1.736-2.8,8.681,8.681,0,0,1,2.743-1.939,9.054,9.054,0,0,1,3.322-.783,6.39,6.39,0,0,1,3.438.752,5.937,5.937,0,0,1,2.429,2.423ZM233.543,76.712h6.945V32.7h-6.945V76.71ZM222.172,51.022h-.239a10.974,10.974,0,0,0-3.779-2.527,11.491,11.491,0,0,0-4.541-.82,16.22,16.22,0,0,0-10.746,4.6,14.427,14.427,0,0,0,0,20.739,16.213,16.213,0,0,0,10.746,4.6,11.3,11.3,0,0,0,4.556-.833,10.746,10.746,0,0,0,3.764-2.569h.239v2.155c0,5.729-3.231,8.791-8.439,8.791a9.067,9.067,0,0,1-4.836-1.516,8.35,8.35,0,0,1-3.123-3.814l-6.046,2.38a14.449,14.449,0,0,0,5.577,6.453,15.65,15.65,0,0,0,8.428,2.4c8.14,0,15.023-4.537,15.023-15.6V48.58h-6.584v2.44Zm-7.959,20.7a9.824,9.824,0,0,1-6.265-2.913,8.756,8.756,0,0,1,0-12.323,9.824,9.824,0,0,1,6.265-2.913,9.29,9.29,0,0,1,3.439.829,8.873,8.873,0,0,1,2.824,2.039,8.366,8.366,0,0,1,1.759,2.921,8.005,8.005,0,0,1,.415,3.341,7.934,7.934,0,0,1-.43,3.318,8.258,8.258,0,0,1-1.765,2.892,8.777,8.777,0,0,1-2.82,2.006A9.228,9.228,0,0,1,214.213,71.722ZM304.792,32.7H288.179V76.71h6.933V60.036h9.68a15.143,15.143,0,0,0,5.766-.816,14.6,14.6,0,0,0,4.956-2.911,13.7,13.7,0,0,0,3.337-4.529,13.029,13.029,0,0,0,0-10.822,13.7,13.7,0,0,0-3.337-4.529,14.636,14.636,0,0,0-4.956-2.913,15.257,15.257,0,0,0-5.766-.816Zm.177,21.211h-9.857V38.828h9.857a8.333,8.333,0,0,1,3.1.529,7.988,7.988,0,0,1,2.639,1.624,7.524,7.524,0,0,1,1.769,2.467,7.185,7.185,0,0,1,0,5.845,7.551,7.551,0,0,1-1.769,2.469,8.014,8.014,0,0,1-2.639,1.622,8.333,8.333,0,0,1-3.1.529Zm42.843-6.319a13.6,13.6,0,0,0-7.245,1.62,12.635,12.635,0,0,0-5.123,5.118l6.154,2.434a6.409,6.409,0,0,1,2.66-2.508,9.413,9.413,0,0,1,8.553.683,6.235,6.235,0,0,1,2.411,4.259v.453a15.993,15.993,0,0,0-7.232-1.7c-6.632,0-13.384,3.453-13.384,9.907a9.758,9.758,0,0,0,1.036,3.924,10.223,10.223,0,0,0,2.567,3.229,10.828,10.828,0,0,0,3.694,2.025,11.227,11.227,0,0,0,4.234.5,10.253,10.253,0,0,0,5.042-1.007,9.6,9.6,0,0,0,3.8-3.3h.239v3.4h6.692V59.768c0-7.814-6.155-12.174-14.1-12.174Zm-.837,24.12c-2.27,0-5.438-1.076-5.438-3.738,0-3.4,3.945-4.7,7.35-4.7a12.9,12.9,0,0,1,6.335,1.474,7.84,7.84,0,0,1-2.747,4.946A8.677,8.677,0,0,1,346.975,71.714Zm39.317-23.158-7.948,19.08h-.239l-8.247-19.08h-7.467l12.367,26.669-7.051,14.834h7.23L394,48.556h-7.706ZM323.852,76.71h6.931V32.7h-6.931Z" transform="translate(71.889 28.903)" fill="#fff"/>
      <path id="Union_1" data-name="Union 1" d="M8537.553,4000.432a6.256,6.256,0,0,1-3.523-1.2l-.021.021-.256-.237-.02-.016h0a6.8,6.8,0,0,1-1.721-4.946V3916.2a6.807,6.807,0,0,1,1.721-4.944h0l.019-.015.257-.24.023.022a6.3,6.3,0,0,1,7.424.017l54.271,29.22-.1.1,18,9.692c5.193,2.794,5.193,7.369,0,10.166l-17.993,9.689.1.094-54.271,29.223a6.269,6.269,0,0,1-3.718,1.214Z" transform="translate(-8494.965 -3884.716)" fill="#fff"/>
      <path id="Path_12" data-name="Path 12" d="M81.745,44.04,27.818,73.077a6.459,6.459,0,0,1-7.442.037l-.278.264.276.253a6.466,6.466,0,0,0,7.444-.039L82.091,44.368l-.347-.328Z" transform="translate(18.671 40.914)" opacity="0.2"/>
      <path id="Path_13" data-name="Path 13" d="M20.933,79.863a6.819,6.819,0,0,1-1.721-4.946v.515a6.813,6.813,0,0,0,1.721,4.946l.276-.262-.276-.251ZM101.1,41.069,82.579,51.042l.347.328L101.1,41.584a6.477,6.477,0,0,0,2.679-2.037A6,6,0,0,0,105,36.5a6.431,6.431,0,0,1-1.379,2.72A6.9,6.9,0,0,1,101.1,41.069Z" transform="translate(17.836 33.912)" opacity="0.12"/>
      <path id="Path_14" data-name="Path 14" d="M28.647,14.73,101.1,53.737a6.878,6.878,0,0,1,2.517,1.848,6.427,6.427,0,0,1,1.377,2.72,5.964,5.964,0,0,0-1.215-3.044,6.42,6.42,0,0,0-2.679-2.037L28.647,14.217c-5.193-2.8-9.441-.475-9.441,5.162v.513c0-5.633,4.25-7.957,9.441-5.162Z" transform="translate(17.843 12.106)" fill="#fff" opacity="0.25"/>
    </g>
  </g>
</svg>
