<svg xmlns="http://www.w3.org/2000/svg" width="460.175" height="135.734" viewBox="0 0 460.175 135.734"><g transform="translate(-49.347 -794.218)"><path d="M485.192,929.952a1.1,1.1,0,0,0,1.071-.91L509.506,795.51a1.1,1.1,0,0,0-1.071-1.292H73.676a1.091,1.091,0,0,0-1.071.913L49.363,928.66a1.1,1.1,0,0,0,1.071,1.292Z" transform="translate(0 0)"/><path d="M101.055,802.915l-12.59,72.663a1.1,1.1,0,0,0,1.071,1.3H100.4a1.1,1.1,0,0,0,1.078-.917L114.07,803.3A1.1,1.1,0,0,0,113,802H102.133a1.1,1.1,0,0,0-1.078.913" transform="translate(98.22 19.553)" fill="#fff"/><path d="M96.264,860.208H108.5a1.092,1.092,0,0,0,1.071-.913l8.541-49.357a1.106,1.106,0,0,0-1.078-1.3H104.8a1.1,1.1,0,0,0-1.075.92l-8.538,49.354a1.1,1.1,0,0,0,1.078,1.3" transform="translate(115.106 36.223)" fill="#fff"/><path d="M167.576,802.946l-2.357,13.605a1.1,1.1,0,0,0,1.078,1.3h13.156a1.1,1.1,0,0,0,1.075-.913l2.357-13.606a1.1,1.1,0,0,0-1.075-1.3H168.654a1.1,1.1,0,0,0-1.078.913" transform="translate(291.03 19.631)" fill="#fff"/><path d="M142.74,825.567a14.161,14.161,0,0,0-9.3-3.533,16.9,16.9,0,0,0-7.66,2.269,1.1,1.1,0,0,1-1.587-1.166l3.4-19.8a1.1,1.1,0,0,0-1.075-1.3h-10.6a1.1,1.1,0,0,0-1.075.917L102.3,875.5a1.1,1.1,0,0,0,1.071,1.3h10.6a1.1,1.1,0,0,0,1.078-.92,1.081,1.081,0,0,1,1.745-.671,14.9,14.9,0,0,0,9.458,3.052c7.4,0,13.437-4.79,17.953-14.238a49.4,49.4,0,0,0,5.019-21.3,28.48,28.48,0,0,0-1.693-9.992,16.774,16.774,0,0,0-4.8-7.164m-8.457,28.77a32.623,32.623,0,0,1-4.007,8.955c-2.044,3.126-4.365,4.713-6.894,4.713a4.057,4.057,0,0,1-3.737-2.192c-.92-1.567-1.387-3.923-1.387-6.989a42.275,42.275,0,0,1,1.387-9.851,44.27,44.27,0,0,1,3.48-9.707c1.728-3.452,3.832-5.127,6.43-5.127a5.035,5.035,0,0,1,4.253,2.353c1.285,1.781,1.935,4.422,1.935,7.856a36.42,36.42,0,0,1-1.461,9.988" transform="translate(132.98 19.631)" fill="#fff"/><path d="M163.588,807.772c-.594-.039-.945-.06-1.057-.06a13.639,13.639,0,0,0-6.883,1.538,14.212,14.212,0,0,0-3.537,3.125l.313-1.787a1.105,1.105,0,0,0-1.075-1.3H140.321a1.1,1.1,0,0,0-1.078.92l-8.812,51.032a1.106,1.106,0,0,0,1.078,1.3h10.971a1.1,1.1,0,0,0,1.075-.917l5.805-33.409a6.846,6.846,0,0,1,3.716-5.226c1.665-.882,4.478-1.38,8.359-1.482l.594-.018,2.378-13.661Z" transform="translate(203.644 33.897)" fill="#fff"/><path d="M171.6,807.712a13.647,13.647,0,0,0-6.883,1.538,13.987,13.987,0,0,0-3.533,3.119l.309-1.781a1.106,1.106,0,0,0-1.078-1.3H149.393a1.1,1.1,0,0,0-1.075.913l-8.812,51.036a1.1,1.1,0,0,0,1.075,1.3h10.971a1.1,1.1,0,0,0,1.078-.917l5.8-33.413a6.846,6.846,0,0,1,3.716-5.219c1.668-.882,4.481-1.38,8.355-1.489l.6-.014,2.374-13.662-.815-.049c-.59-.039-.945-.06-1.057-.06" transform="translate(226.437 33.897)" fill="#fff"/><path d="M167.161,838.569l-3.045-29.434a1.1,1.1,0,0,0-1.089-.99H152.488a1.1,1.1,0,0,0-1.082,1.268l7.41,50.955a1.089,1.089,0,0,1-.123.688l-8.358,15.667a1.108,1.108,0,0,0,.959,1.637h11.193a1.1,1.1,0,0,0,.987-.636l31.854-68a1.1,1.1,0,0,0-.983-1.584H182.491a1.1,1.1,0,0,0-1.011.685l-12.222,30.049a1.09,1.09,0,0,1-2.1-.309" transform="translate(253.347 34.984)" fill="#fff"/><path d="M101.246,847.554a1.109,1.109,0,0,0-1.025.724,9.972,9.972,0,0,1-1.089,2.205,6.333,6.333,0,0,1-5.472,2.947,4.8,4.8,0,0,1-3.962-1.746,7.868,7.868,0,0,1-1.482-5.11,52.026,52.026,0,0,1,.474-5.5,1.1,1.1,0,0,1,1.085-.969h27.474l.116-.594a51.517,51.517,0,0,0,.973-10.121c0-6.781-1.3-11.951-3.874-15.354-3.108-4.186-7.674-6.311-13.567-6.311a21.755,21.755,0,0,0-10.733,2.859C85.9,813,82.4,816.971,79.757,822.394a45.629,45.629,0,0,0-4.6,20.169c0,6.855,1.967,12.369,5.851,16.4a15.955,15.955,0,0,0,5.665,3.856,21.347,21.347,0,0,0,7.523,1.131,22.2,22.2,0,0,0,8.913-1.549,20.521,20.521,0,0,0,6.9-5.468,22.168,22.168,0,0,0,3.357-4.854,29.468,29.468,0,0,0,1.257-3.034,1.116,1.116,0,0,0-1.029-1.5Zm-7.273-26.737c1.679-2.234,3.6-3.315,5.861-3.315,3.663,0,5.444,2.634,5.444,8.043,0,.579-.039,1.419-.119,2.5a1.115,1.115,0,0,1-1.092,1.04H92.161a1.1,1.1,0,0,1-1.078-1.3,16.779,16.779,0,0,1,2.89-6.971" transform="translate(64.833 33.937)" fill="#fff"/><path d="M143.187,847.554a1.109,1.109,0,0,0-1.026.724,9.971,9.971,0,0,1-1.089,2.205,6.333,6.333,0,0,1-5.472,2.947,4.8,4.8,0,0,1-3.962-1.746,7.868,7.868,0,0,1-1.482-5.11,52.022,52.022,0,0,1,.474-5.5,1.1,1.1,0,0,1,1.085-.969h27.474l.116-.594a51.516,51.516,0,0,0,.973-10.121c0-6.781-1.3-11.951-3.874-15.354-3.108-4.186-7.674-6.311-13.567-6.311a21.755,21.755,0,0,0-10.733,2.859c-4.267,2.416-7.769,6.385-10.41,11.807a45.63,45.63,0,0,0-4.6,20.169c0,6.855,1.967,12.369,5.851,16.4a15.956,15.956,0,0,0,5.665,3.856,21.347,21.347,0,0,0,7.523,1.131,22.2,22.2,0,0,0,8.913-1.549,20.521,20.521,0,0,0,6.9-5.468,22.167,22.167,0,0,0,3.358-4.854,29.474,29.474,0,0,0,1.257-3.034,1.116,1.116,0,0,0-1.029-1.5Zm-7.273-26.737c1.679-2.234,3.6-3.315,5.861-3.315,3.663,0,5.444,2.634,5.444,8.043,0,.579-.039,1.419-.119,2.5a1.115,1.115,0,0,1-1.092,1.04H134.1a1.1,1.1,0,0,1-1.078-1.3,16.779,16.779,0,0,1,2.89-6.971" transform="translate(170.186 33.937)" fill="#fff"/><path d="M98.672,802.949l-3.695,21.293a1.087,1.087,0,0,1-1.756.664,15.156,15.156,0,0,0-9.588-2.873c-7.4,0-13.458,4.811-18.006,14.294a48.046,48.046,0,0,0-4.864,20.924c0,5.9,1.131,10.736,3.357,14.375a14.387,14.387,0,0,0,11.849,6.694,19.02,19.02,0,0,0,10.192-3.027l-.242,1.51H97.752a1.1,1.1,0,0,0,1.078-.917l12.59-72.554a1.1,1.1,0,0,0-1.075-1.3h-10.6a1.1,1.1,0,0,0-1.075.917M76.136,863.864c-1.247-1.742-1.882-4.474-1.882-8.13A34.8,34.8,0,0,1,79.834,837.1c2.009-3.224,4.2-4.861,6.515-4.861,1.292,0,5.233,0,5.233,8.2a49.317,49.317,0,0,1-1.313,10.838,44.4,44.4,0,0,1-3.34,9.855,11.549,11.549,0,0,1-3.1,3.849c-3,2.378-5.542,1.767-7.688-1.124" transform="translate(28.681 19.628)" fill="#fff"/></g></svg>