<svg id="Layer_1" data-name="Layer 1" xmlns="http://www.w3.org/2000/svg" viewBox="0 0 131.03 38.65"><defs><style>.cls-1{fill:#e53512;}.cls-2{fill:#fff;}</style></defs><title>Logo_deliberry</title><path class="cls-1" d="M124.1,38.65a.32.32,0,0,0,.31-.26L131,.37a.32.32,0,0,0-.31-.37H6.93a.32.32,0,0,0-.31.26L0,38.28a.32.32,0,0,0,.31.37Z" transform="translate(0 0)"/><path class="cls-2" d="M42.69,8,39.11,28.73a.31.31,0,0,0,.3.37H42.5a.31.31,0,0,0,.31-.26L46.4,8.15a.32.32,0,0,0-.31-.37H43a.32.32,0,0,0-.31.26" transform="translate(0 0)"/><path class="cls-2" d="M46.13,29.1h3.49a.3.3,0,0,0,.3-.26l2.44-14a.32.32,0,0,0-.31-.37H48.56a.3.3,0,0,0-.3.26L45.83,28.74a.3.3,0,0,0,.3.36" transform="translate(0 0)"/><path class="cls-2" d="M116.53,8.08,115.86,12a.32.32,0,0,0,.31.37h3.74a.32.32,0,0,0,.31-.26l.67-3.88a.3.3,0,0,0-.3-.36h-3.75a.32.32,0,0,0-.31.26" transform="translate(0 0)"/><path class="cls-2" d="M64.46,14.52a4,4,0,0,0-2.65-1,4.77,4.77,0,0,0-2.18.65.31.31,0,0,1-.45-.34l1-5.64a.31.31,0,0,0-.3-.37h-3a.32.32,0,0,0-.31.27L52.94,28.73a.32.32,0,0,0,.31.37h3a.3.3,0,0,0,.3-.26.31.31,0,0,1,.5-.19,4.23,4.23,0,0,0,2.69.87c2.11,0,3.83-1.36,5.12-4.05a14.08,14.08,0,0,0,1.43-6.07,8.06,8.06,0,0,0-.49-2.84,4.7,4.7,0,0,0-1.36-2m-2.41,8.19a9.45,9.45,0,0,1-1.14,2.55,2.43,2.43,0,0,1-2,1.34A1.17,1.17,0,0,1,57.88,26a4.07,4.07,0,0,1-.39-2,12.14,12.14,0,0,1,.39-2.81,12.62,12.62,0,0,1,1-2.76C59.36,17.43,60,17,60.7,17a1.43,1.43,0,0,1,1.21.67,3.76,3.76,0,0,1,.56,2.23,10.25,10.25,0,0,1-.42,2.85" transform="translate(0 0)"/><path class="cls-2" d="M90.51,13.51l-.3,0a3.9,3.9,0,0,0-2,.44,4.16,4.16,0,0,0-1,.89l.09-.51a.32.32,0,0,0-.31-.37H83.89a.32.32,0,0,0-.31.26L81.07,28.73a.32.32,0,0,0,.31.37H84.5a.31.31,0,0,0,.31-.26l1.65-9.51a2,2,0,0,1,1.06-1.49,5.88,5.88,0,0,1,2.38-.42h.17l.68-3.89Z" transform="translate(0 0)"/><path class="cls-2" d="M99.29,13.49a3.9,3.9,0,0,0-2,.44,4,4,0,0,0-1,.89l.09-.51a.32.32,0,0,0-.31-.37H93a.3.3,0,0,0-.3.26L90.15,28.73a.31.31,0,0,0,.3.37h3.13a.3.3,0,0,0,.3-.26l1.66-9.51a2,2,0,0,1,1-1.49A5.88,5.88,0,0,1,99,17.42h.17l.68-3.89-.23,0-.3,0" transform="translate(0 0)"/><path class="cls-2" d="M105.68,22.59l-.86-8.38a.31.31,0,0,0-.31-.28h-3a.31.31,0,0,0-.31.36l2.11,14.51a.27.27,0,0,1,0,.19l-2.38,4.46a.32.32,0,0,0,.28.47h3.18a.31.31,0,0,0,.28-.18l9.07-19.36a.31.31,0,0,0-.28-.45h-3.37a.3.3,0,0,0-.29.19l-3.48,8.56a.31.31,0,0,1-.6-.09" transform="translate(0 0)"/><path class="cls-2" d="M33.24,24.85a.3.3,0,0,0-.29.21,3.23,3.23,0,0,1-.31.62,1.8,1.8,0,0,1-1.56.84A1.37,1.37,0,0,1,30,26a2.25,2.25,0,0,1-.42-1.46A14.11,14.11,0,0,1,29.66,23a.32.32,0,0,1,.31-.28H37.8l0-.17a14.89,14.89,0,0,0,.28-2.88A7.25,7.25,0,0,0,37,15.31a4.53,4.53,0,0,0-3.86-1.8,6.23,6.23,0,0,0-3.06.81,7.49,7.49,0,0,0-3,3.37,13,13,0,0,0-1.31,5.74,6.46,6.46,0,0,0,1.67,4.67,4.59,4.59,0,0,0,1.61,1.1,6.19,6.19,0,0,0,2.14.32,6.4,6.4,0,0,0,2.54-.44,5.77,5.77,0,0,0,2-1.56,6.16,6.16,0,0,0,1-1.38,8.31,8.31,0,0,0,.36-.86.32.32,0,0,0-.3-.43Zm-2.07-7.61a2,2,0,0,1,1.67-.95c1,0,1.55.75,1.55,2.29,0,.17,0,.41,0,.72a.32.32,0,0,1-.31.29H30.65a.32.32,0,0,1-.31-.37,4.76,4.76,0,0,1,.83-2" transform="translate(0 0)"/><path class="cls-2" d="M75.18,24.85a.3.3,0,0,0-.29.21,3.23,3.23,0,0,1-.31.62,1.8,1.8,0,0,1-1.56.84A1.37,1.37,0,0,1,71.89,26a2.25,2.25,0,0,1-.42-1.46A14.11,14.11,0,0,1,71.6,23a.32.32,0,0,1,.31-.28h7.83l0-.17a14.89,14.89,0,0,0,.28-2.88,7.25,7.25,0,0,0-1.11-4.37,4.53,4.53,0,0,0-3.86-1.8,6.23,6.23,0,0,0-3.06.81,7.49,7.49,0,0,0-3,3.37,13,13,0,0,0-1.31,5.74,6.46,6.46,0,0,0,1.67,4.67A4.59,4.59,0,0,0,71,29.2a6.19,6.19,0,0,0,2.14.32,6.4,6.4,0,0,0,2.54-.44,5.77,5.77,0,0,0,2-1.56,6.16,6.16,0,0,0,1-1.38,8.31,8.31,0,0,0,.36-.86.32.32,0,0,0-.3-.43Zm-2.07-7.61a2,2,0,0,1,1.67-.95c1,0,1.55.75,1.55,2.29,0,.17,0,.41,0,.72a.32.32,0,0,1-.31.29H72.59a.32.32,0,0,1-.31-.37,4.76,4.76,0,0,1,.83-2" transform="translate(0 0)"/><path class="cls-2" d="M22.21,8.08l-1.05,6.06a.31.31,0,0,1-.5.19,4.27,4.27,0,0,0-2.73-.82c-2.11,0-3.83,1.37-5.13,4.07a13.65,13.65,0,0,0-1.38,6,7.84,7.84,0,0,0,.95,4.09,4.1,4.1,0,0,0,3.38,1.91,5.36,5.36,0,0,0,2.9-.87l-.07.43H22a.32.32,0,0,0,.31-.26L25.84,8.18a.31.31,0,0,0-.3-.37h-3a.32.32,0,0,0-.31.27M15.8,25.42a4,4,0,0,1-.54-2.31,9.87,9.87,0,0,1,1.59-5.31c.57-.92,1.2-1.38,1.85-1.38.37,0,1.49,0,1.49,2.33a13.89,13.89,0,0,1-.37,3.09,12.7,12.7,0,0,1-.95,2.8,3.25,3.25,0,0,1-.89,1.1,1.35,1.35,0,0,1-2.18-.32" transform="translate(0 0)"/></svg>